<svg width="25" height="25" viewBox="0 0 25 25" fill="none" xmlns="http://www.w3.org/2000/svg">
<path d="M20.8333 10.4166C20.8333 16.6666 12.5 22.9166 12.5 22.9166C12.5 22.9166 4.16663 16.6666 4.16663 10.4166C4.16663 8.20645 5.0446 6.08683 6.6074 4.52403C8.17021 2.96123 10.2898 2.08325 12.5 2.08325C14.7101 2.08325 16.8297 2.96123 18.3925 4.52403C19.9553 6.08683 20.8333 8.20645 20.8333 10.4166V10.4166Z" stroke="#0A0A0A" stroke-width="1.5" stroke-linecap="round" stroke-linejoin="round"/>
<path d="M12.5 13.5417C14.2259 13.5417 15.625 12.1426 15.625 10.4167C15.625 8.69086 14.2259 7.29175 12.5 7.29175C10.7741 7.29175 9.375 8.69086 9.375 10.4167C9.375 12.1426 10.7741 13.5417 12.5 13.5417Z" stroke="#0A0A0A" stroke-width="1.5" stroke-linecap="round" stroke-linejoin="round"/>
</svg>
