<svg width="24" height="24" viewBox="0 0 24 24" fill="none" xmlns="http://www.w3.org/2000/svg">
<path d="M22.5 10.6472H9.8801C9.37134 8.53038 7.46727 6.95068 5.19653 6.95068C2.53784 6.95068 0.375 9.11353 0.375 11.7722C0.375 14.4309 2.53784 16.5937 5.19653 16.5937C7.46727 16.5937 9.37134 15.0141 9.8801 12.8972H17.4038V15.9243C17.4038 16.5454 17.9077 17.0493 18.5288 17.0493C19.1499 17.0493 19.6538 16.5454 19.6538 15.9243V12.8972H21.375V15.9243C21.375 16.5454 21.8789 17.0493 22.5 17.0493C23.1211 17.0493 23.625 16.5454 23.625 15.9243V11.7722C23.625 11.1511 23.1211 10.6472 22.5 10.6472ZM5.19653 14.3437C3.77857 14.3437 2.625 13.1902 2.625 11.7722C2.625 10.3543 3.77857 9.20068 5.19653 9.20068C6.6145 9.20068 7.76806 10.3543 7.76806 11.7722C7.76806 13.1902 6.6145 14.3437 5.19653 14.3437Z" fill="#0A0A0A"/>
</svg>
