<svg width="24" height="24" viewBox="0 0 24 24" fill="none" xmlns="http://www.w3.org/2000/svg">
<path d="M12 2.25C10.3067 2.24987 8.64255 2.69074 7.17141 3.52921C5.70026 4.36768 4.47285 5.57483 3.61001 7.03182C2.74717 8.4888 2.27866 10.1454 2.25061 11.8385C2.22255 13.5315 2.63592 15.2027 3.45001 16.6875L2.65313 19.5C2.57879 19.7563 2.57462 20.0278 2.64103 20.2863C2.70745 20.5447 2.84203 20.7806 3.03072 20.9693C3.21941 21.158 3.45529 21.2926 3.71374 21.359C3.97219 21.4254 4.24373 21.4212 4.50001 21.3469L7.31251 20.55C8.6159 21.2644 10.0654 21.6713 11.5501 21.7397C13.0349 21.8081 14.5156 21.5361 15.8791 20.9445C17.2427 20.353 18.4529 19.4575 19.4174 18.3266C20.3818 17.1956 21.0749 15.8592 21.4437 14.4193C21.8125 12.9795 21.8473 11.4744 21.5453 10.0191C21.2433 8.56374 20.6126 7.19672 19.7014 6.02249C18.7901 4.84826 17.6225 3.8979 16.2877 3.24406C14.9529 2.59022 13.4863 2.25021 12 2.25ZM12 20.25C10.5191 20.2486 9.06552 19.8504 7.79063 19.0969C7.67299 19.0313 7.54093 18.9959 7.40626 18.9938C7.33656 18.9938 7.26719 19.0033 7.20001 19.0219L4.08751 19.9125L4.97813 16.8C5.00553 16.7015 5.01301 16.5985 5.00013 16.4971C4.98725 16.3957 4.95428 16.2979 4.90313 16.2094C3.9744 14.6439 3.58947 12.8152 3.80829 11.0082C4.02711 9.20119 4.8374 7.51726 6.11294 6.21872C7.38848 4.92018 9.05767 4.07993 10.8605 3.82886C12.6633 3.57779 14.4986 3.92998 16.0804 4.83059C17.6622 5.7312 18.9018 7.12965 19.606 8.80813C20.3102 10.4866 20.4396 12.3509 19.9739 14.1105C19.5083 15.8702 18.4738 17.4264 17.0315 18.5369C15.5892 19.6474 13.8202 20.2497 12 20.25ZM16.9219 13.4156L15 12.3187C14.7698 12.1863 14.5083 12.1181 14.2428 12.1214C13.9772 12.1247 13.7174 12.1994 13.4906 12.3375L12.375 13.0031C11.8059 12.6684 11.3316 12.1941 10.9969 11.625L11.6625 10.5094C11.8006 10.2826 11.8753 10.0228 11.8786 9.75725C11.8819 9.49171 11.8137 9.23017 11.6813 9L10.5844 7.07812C10.4624 6.86495 10.2864 6.68771 10.0741 6.56426C9.86173 6.44082 9.62061 6.37554 9.37501 6.375C8.48152 6.375 7.6245 6.72929 6.99183 7.3602C6.35916 7.99111 6.00249 8.84715 6.00001 9.74063C6.00001 11.9295 6.8689 14.0289 8.41581 15.5776C9.96271 17.1262 12.0611 17.9975 14.25 18H14.2594C15.1529 17.9975 16.0089 17.6408 16.6398 17.0082C17.2707 16.3755 17.625 15.5185 17.625 14.625C17.6245 14.3794 17.5592 14.1383 17.4357 13.926C17.3123 13.7136 17.1351 13.5376 16.9219 13.4156ZM14.2594 16.5C13.3714 16.5012 12.4919 16.3272 11.6712 15.988C10.8506 15.6487 10.1049 15.1509 9.47703 14.523C8.84912 13.8951 8.35127 13.1494 8.01202 12.3288C7.67277 11.5081 7.49877 10.6286 7.50001 9.74063C7.49985 9.25385 7.68996 8.78628 8.02976 8.43773C8.36956 8.08917 8.83213 7.88723 9.31876 7.875L10.3781 9.74063L9.49688 11.2031C9.43589 11.3074 9.40066 11.4248 9.39414 11.5455C9.38762 11.6661 9.40999 11.7866 9.45938 11.8969C9.98189 13.0758 10.9242 14.0181 12.1031 14.5406C12.2134 14.59 12.3339 14.6124 12.4545 14.6059C12.5752 14.5993 12.6926 14.5641 12.7969 14.5031L14.2594 13.6219L16.125 14.6813C16.1128 15.1679 15.9108 15.6304 15.5623 15.9702C15.2137 16.31 14.7462 16.5002 14.2594 16.5Z" fill="#0A0A0A"/>
</svg>
